<?xml version="1.0" encoding="UTF-8"?>
<!--Generator: Apple Native CoreSVG 341-->
<!DOCTYPE svg
PUBLIC "-//W3C//DTD SVG 1.1//EN"
       "http://www.w3.org/Graphics/SVG/1.1/DTD/svg11.dtd">
<svg version="1.1" xmlns="http://www.w3.org/2000/svg" xmlns:xlink="http://www.w3.org/1999/xlink" viewBox="0 0 254.004 309.802">
 <g>
  <rect height="309.802" opacity="0" width="254.004" x="0" y="0"/>
  <path d="M238.477 69.5006L238.477 259.637C238.477 284.93 225.781 297.723 200.781 297.723L108.991 297.723C132.703 295.059 157.138 290.872 183.496 284.149C207.617 277.801 219.824 262.469 219.824 235.028L219.824 45.9654C219.824 41.9104 219.493 38.0888 218.836 34.5308C231.893 39.6057 238.477 51.2868 238.477 69.5006Z" fill="#ff8d28"/>
  <path d="M204.199 45.9654L204.199 235.028C204.199 255.536 196.777 264.715 179.492 269.208C132.52 281.024 92.1875 284.833 49.8047 286.59C28.2227 287.665 15.5273 276.825 15.5273 256.61L15.5273 65.4967C15.5273 44.3053 28.125 33.2701 47.7539 32.2935C92.1875 30.2428 132.52 24.2857 169.043 16.6685C191.309 11.6881 204.199 23.1138 204.199 45.9654ZM149.414 78.3873L88.4766 99.2857C84.082 100.848 81.543 103.68 81.543 107.587L81.9336 180.047C81.9336 182.977 80.7617 184.735 78.2227 185.614L68.2617 188.934C55.3711 193.329 48.9258 200.751 48.9258 211.102C48.9258 221.063 56.7383 227.215 67.6758 225.751C77.0508 224.481 91.6992 215.204 91.6992 196.454L91.6992 136.297C91.6992 133.368 92.0898 132.879 94.7266 132.001L146.191 114.227C149.121 113.348 150.195 113.739 150.195 116.083L150.586 156.512C150.586 159.442 149.023 161.493 146.289 162.469L136.719 165.887C123.633 170.575 117.09 177.704 117.09 187.665C117.09 197.626 125 203.68 136.133 202.118C145.508 200.848 159.863 192.254 159.863 173.309L159.863 83.7584C159.863 77.4107 156.738 75.6529 149.414 78.3873Z" fill="#ff8d28"/>
 </g>
</svg>
