<?xml version="1.0" encoding="UTF-8"?>
<!--Generator: Apple Native CoreSVG 341-->
<!DOCTYPE svg
PUBLIC "-//W3C//DTD SVG 1.1//EN"
       "http://www.w3.org/Graphics/SVG/1.1/DTD/svg11.dtd">
<svg version="1.1" xmlns="http://www.w3.org/2000/svg" xmlns:xlink="http://www.w3.org/1999/xlink" viewBox="0 0 229.59 229.59">
 <g>
  <rect height="229.59" opacity="0" width="229.59" x="0" y="0"/>
  <path d="M229.59 37.6953L229.59 191.992C229.59 216.797 216.797 229.59 191.504 229.59L37.9883 229.59C12.793 229.59 0 216.992 0 191.992L0 37.6953C0 12.6953 12.793 0 37.9883 0L191.504 0C216.797 0 229.59 12.793 229.59 37.6953ZM78.6133 69.5312L78.6133 160.059C78.6133 165.82 85.1562 168.652 90.7227 165.234L164.355 121.484C169.531 118.457 169.434 111.328 164.355 108.301L90.7227 64.4531C85.5469 61.3281 78.6133 63.7695 78.6133 69.5312Z" fill="black" fill-opacity="0.85"/>
 </g>
</svg>
